<svg t="1769071176416" class="icon" viewBox="0 0 1024 1024" version="1.1" xmlns="http://www.w3.org/2000/svg" p-id="12544" width="200" height="200"><path d="M380.122037 0.699317h208.621268c24.600976 0 64.062439-4.420683 75.226537 8.99122a74.327415 74.327415 0 0 1 8.391805 49.127024v95.256976c16.78361 7.79239 33.542244 16.558829 49.152 25.749853a90.836293 90.836293 0 0 1 20.380097 12.288l83.618342-51.524683a57.443902 57.443902 0 0 1 39.261658-15.884487c25.849756 4.695415 33.267512 32.468293 44.656391 51.524682l86.915122 151.277269 25.774829 45.830244a32.468293 32.468293 0 0 1 0.299707 21.578926 73.528195 73.528195 0 0 1-33.267512 24.551025l-86.615415 54.521756v76.40039l82.71922 51.799415a60.890537 60.890537 0 0 1 33.267512 29.671024 52.44878 52.44878 0 0 1-11.089171 44.631415l-11.388878 20.679805-84.492488 147.006439c-9.990244 16.758634-19.805659 46.354732-39.561365 52.44878a50.300878 50.300878 0 0 1-45.555513-12.487805L741.91872 831.962537l-17.682732 11.988292a140.837463 140.837463 0 0 1-51.849366 26.049561v95.556683a80.471415 80.471415 0 0 1-7.79239 48.227903c-11.139122 13.911415-45.205854 9.590634-69.931707 9.590634h-164.839025c-22.702829 0-53.797463 3.521561-66.834731-6.593561-11.688585-9.066146-10.789463-26.324293-10.789464-47.453659v-99.452878l-18.282146-9.290927c-9.365854-5.444683-19.356098-9.61561-28.472195-14.985365a104.323122 104.323122 0 0 1-23.077464-13.786537L196.051793 885.13561a47.853268 47.853268 0 0 1-41.35961 13.162146c-21.029463-6.318829-31.144585-36.189659-41.659317-53.897366l-84.917073-147.68078-25.774829-45.555512a33.467317 33.467317 0 0 1-1.498537-19.156293 56.844488 56.844488 0 0 1 31.469269-25.774829l89.612487-55.995317V473.537561l-91.111024-56.919415a53.223024 53.223024 0 0 1-29.970732-24.975609 32.99278 32.99278 0 0 1 1.19883-18.282147l24.975609-44.331707 83.318634-144.983415c8.391805-14.036293 22.852683-48.677463 36.864-54.521756a48.852293 48.852293 0 0 1 45.255805 13.187122l89.312781 55.720586 16.184195-11.089171A232.273171 232.273171 0 0 1 352.299208 160.343415V60.615805a107.569951 107.569951 0 0 1 4.195902-45.555512 30.470244 30.470244 0 0 1 16.184195-12.862439z m36.264585 64.087415v85.991024a80.046829 80.046829 0 0 1-6.593561 44.331707 60.840585 60.840585 0 0 1-27.273365 16.458927 327.804878 327.804878 0 0 0-40.460488 21.578927l-20.380098 13.187122a47.303805 47.303805 0 0 1-41.35961 14.360976 117.510244 117.510244 0 0 1-31.768975-15.260098L199.398525 219.785366a152.875707 152.875707 0 0 0-26.374244-13.761561l-95.306927 165.638244 81.820098 49.127024a52.074146 52.074146 0 0 1 28.472195 23.976586 46.229854 46.229854 0 0 1-2.097951 21.853658 304.078049 304.078049 0 0 0-5.994147 60.515903 106.27122 106.27122 0 0 0 2.697366 23.676878 43.757268 43.757268 0 0 1 2.997073 34.141658 85.966049 85.966049 0 0 1-30.570146 21.254244l-77.42439 46.729366 95.606634 165.663219 71.929756-42.83317a120.357463 120.357463 0 0 1 34.766049-18.581854 45.305756 45.305756 0 0 1 39.561366 12.887415l21.578926 14.086244a321.511024 321.511024 0 0 0 40.160781 21.553951 62.86361 62.86361 0 0 1 28.472195 17.083317 85.491512 85.491512 0 0 1 6.593561 46.129951v90.461659h191.537951v-84.76722a81.69522 81.69522 0 0 1 7.192976-46.129951 63.063415 63.063415 0 0 1 27.473171-16.184195 320.237268 320.237268 0 0 0 39.261658-20.954537l22.178342-14.385951a46.279805 46.279805 0 0 1 41.059902-13.187122 99.178146 99.178146 0 0 1 27.87278 14.685658l78.22361 46.429659 95.306927-165.962927-29.970732-17.957463-40.460487-24.276293a79.197659 79.197659 0 0 1-38.362537-32.643122 30.345366 30.345366 0 0 1 0.299707-20.380097l0.899122-13.761561 5.51961-30.420293a138.215024 138.215024 0 0 0-2.097951-43.732293 47.453659 47.453659 0 0 1-3.296781-23.95161 54.122146 54.122146 0 0 1 9.990244-20.979512 76.525268 76.525268 0 0 1 19.980488-12.487805l46.454634-27.847804 31.469268-18.881561-95.906341-165.937952L781.879696 246.933854a133.894244 133.894244 0 0 1-37.163708 19.980487c-23.826732 5.769366-46.829268-18.03239-61.44-26.948682l-35.66517-19.480976a63.962537 63.962537 0 0 1-28.472196-17.657756 57.843512 57.843512 0 0 1-10.190048-20.679805 190.838634 190.838634 0 0 1-0.899122-39.53639V64.711805h-191.66283z m84.917074 255.525463c98.903415-1.42361 160.343415 47.928195 188.540878 116.835903a202.752 202.752 0 0 1 11.688585 109.892682 235.52 235.52 0 0 1-12.887415 43.732293 184.295024 184.295024 0 0 1-119.882926 105.447025 320.536976 320.536976 0 0 1-44.356683 7.492682h-15.984391l-19.181268-0.899121a240.989659 240.989659 0 0 1-47.653463-11.66361 182.571707 182.571707 0 0 1-113.589073-123.729171 198.556098 198.556098 0 0 1-5.69444-85.666341 219.53561 219.53561 0 0 1 9.590635-38.337561 186.717659 186.717659 0 0 1 111.191414-111.441171 223.157073 223.157073 0 0 1 37.463415-9.590634z m4.195902 64.11239l-13.786537 1.498537a153.624976 153.624976 0 0 0-26.074536 7.192976 127.37561 127.37561 0 0 0-2.097951 236.643902 117.385366 117.385366 0 0 0 56.344975 9.990244 222.732488 222.732488 0 0 0 28.771903-4.995122 128.074927 128.074927 0 0 0 81.52039-73.10361 133.12 133.12 0 0 0-0.299707-98.553756 125.127805 125.127805 0 0 0-124.453464-78.673171z"  p-id="12545"></path></svg>