<svg t="1769075806721" class="icon" viewBox="0 0 1024 1024" version="1.1" xmlns="http://www.w3.org/2000/svg" p-id="18168" width="200" height="200"><path d="M874.66666665 422.4l0-25.6 25.6 0 0 25.6z" fill="" p-id="18169"></path><path d="M900.26666665 140.8L900.26666665 371.2l-25.60000001 0 1e-8-199.488L175.96586665 870.4 874.66666665 870.4l0-422.4 25.6 0L900.26666665 883.2a12.8 12.8 0 0 1-12.8 12.8L145.06666665 896.00000001a12.8256 12.8256 0 0 1-9.0496-21.84960001l742.4-742.4A12.8 12.8 0 0 1 900.26666665 140.8z" fill="" p-id="18170"></path><path d="M733.86666665 652.8l0-25.6 25.6 0 0 25.6z" fill="" p-id="18171"></path><path d="M759.46666665 512l1e-8 89.6-25.60000001 0 0-58.7008L547.16586665 729.60000001 733.86666665 729.6l0-51.2 25.6 0 1e-8 64a12.8 12.8 0 0 1-12.80000001 12.8L516.26666665 755.2a12.8256 12.8256 0 0 1-9.0496-21.8496l230.4-230.4A12.8 12.8 0 0 1 759.46666665 512zM273.06666665 883.2l0-51.2 25.6 0L298.66666665 883.20000001zM375.46666665 883.2l0-76.79999999 25.6 0L401.06666665 883.2zM477.86666665 883.20000001l0-51.20000001 25.6 0L503.46666665 883.2zM580.26666665 883.2l0-76.8 25.6 0L605.86666665 883.20000001zM682.66666665 883.2l1e-8-51.2 25.59999998 0L708.26666665 883.2zM785.06666665 883.20000001l0-76.80000001 25.6 0L810.66666665 883.2zM264.01706665 764.2496l18.0992-18.0992 38.4 38.4-18.0992 18.112zM328.01706666 700.2496l18.09919999-18.0992 38.4 38.4-18.0992 18.112zM392.01706665 636.2496l18.09920001-18.0992 38.39999999 38.4-18.0992 18.112zM456.01706665 572.2496l18.0992-18.0992 38.4 38.4-18.0992 18.112zM520.01706665 508.2496l18.0992-18.0992 38.4 38.4-18.0992 18.112zM584.01706665 444.2496l18.0992-18.0992 38.4 38.4-18.0992 18.112zM648.01706665 380.24960001l18.0992-18.09920001 38.4 38.4-18.0992 18.112zM712.00426665 316.2496l18.112-18.09919999 38.4 38.39999999-18.0992 18.112zM776.00426665 252.2496l18.112-18.0992 38.4 38.4-18.0992 18.112z" fill="" p-id="18172"></path></svg>